<mxfile host="app.diagrams.net" modified="2023-08-18T22:42:28.111Z" agent="Mozilla/5.0 (Windows NT 10.0; Win64; x64) AppleWebKit/537.36 (KHTML, like Gecko) Chrome/115.0.0.0 Safari/537.36" etag="KyKKWJyzxUL0WvazWlL3" version="21.6.8" type="device">
  <diagram id="qk96bbHJtCQS-nLckJSV" name="Page-1">
    <mxGraphModel dx="1434" dy="750" grid="1" gridSize="10" guides="1" tooltips="1" connect="1" arrows="1" fold="1" page="1" pageScale="1" pageWidth="850" pageHeight="1100" math="0" shadow="0">
      <root>
        <mxCell id="0" />
        <mxCell id="1" parent="0" />
        <mxCell id="gqFaeBh5zX8QO3zzliL1-12" value="6" style="edgeStyle=orthogonalEdgeStyle;rounded=0;orthogonalLoop=1;jettySize=auto;html=1;exitX=0.5;exitY=1;exitDx=0;exitDy=0;entryX=0.5;entryY=0;entryDx=0;entryDy=0;startArrow=classic;startFill=1;" parent="1" source="gqFaeBh5zX8QO3zzliL1-6" target="gqFaeBh5zX8QO3zzliL1-7" edge="1">
          <mxGeometry relative="1" as="geometry">
            <mxPoint as="offset" />
          </mxGeometry>
        </mxCell>
        <mxCell id="gqFaeBh5zX8QO3zzliL1-6" value="SPI FLASH&lt;br&gt;AT45DB041B&lt;br&gt;4 Mb" style="rounded=1;whiteSpace=wrap;html=1;fillColor=#f5f5f5;fontColor=#333333;strokeColor=#666666;" parent="1" vertex="1">
          <mxGeometry x="200" y="20" width="120" height="60" as="geometry" />
        </mxCell>
        <mxCell id="gqFaeBh5zX8QO3zzliL1-32" style="edgeStyle=orthogonalEdgeStyle;rounded=0;orthogonalLoop=1;jettySize=auto;html=1;exitX=0.5;exitY=1;exitDx=0;exitDy=0;entryX=0.5;entryY=0;entryDx=0;entryDy=0;startArrow=classic;startFill=1;" parent="1" source="gqFaeBh5zX8QO3zzliL1-7" target="gqFaeBh5zX8QO3zzliL1-8" edge="1">
          <mxGeometry relative="1" as="geometry" />
        </mxCell>
        <mxCell id="gqFaeBh5zX8QO3zzliL1-33" value="13" style="edgeLabel;html=1;align=center;verticalAlign=middle;resizable=0;points=[];" parent="gqFaeBh5zX8QO3zzliL1-32" connectable="0" vertex="1">
          <mxGeometry x="0.2222" y="1" relative="1" as="geometry">
            <mxPoint x="9" as="offset" />
          </mxGeometry>
        </mxCell>
        <mxCell id="gqFaeBh5zX8QO3zzliL1-34" value="4" style="edgeStyle=orthogonalEdgeStyle;rounded=0;orthogonalLoop=1;jettySize=auto;html=1;exitX=0.25;exitY=1;exitDx=0;exitDy=0;entryX=0.25;entryY=0;entryDx=0;entryDy=0;startArrow=classic;startFill=1;" parent="1" source="gqFaeBh5zX8QO3zzliL1-7" target="gqFaeBh5zX8QO3zzliL1-8" edge="1">
          <mxGeometry x="0.3333" y="-10" relative="1" as="geometry">
            <mxPoint as="offset" />
          </mxGeometry>
        </mxCell>
        <mxCell id="gqFaeBh5zX8QO3zzliL1-41" style="edgeStyle=orthogonalEdgeStyle;rounded=0;orthogonalLoop=1;jettySize=auto;html=1;exitX=1;exitY=0.25;exitDx=0;exitDy=0;entryX=0.25;entryY=1;entryDx=0;entryDy=0;startArrow=classic;startFill=1;" parent="1" source="gqFaeBh5zX8QO3zzliL1-7" target="gqFaeBh5zX8QO3zzliL1-40" edge="1">
          <mxGeometry relative="1" as="geometry" />
        </mxCell>
        <mxCell id="gqFaeBh5zX8QO3zzliL1-42" value="4" style="edgeLabel;html=1;align=center;verticalAlign=middle;resizable=0;points=[];" parent="gqFaeBh5zX8QO3zzliL1-41" connectable="0" vertex="1">
          <mxGeometry x="-0.1528" y="-2" relative="1" as="geometry">
            <mxPoint as="offset" />
          </mxGeometry>
        </mxCell>
        <mxCell id="8Vva1S4ErMBVoe8mqOkN-3" style="edgeStyle=orthogonalEdgeStyle;rounded=0;orthogonalLoop=1;jettySize=auto;html=1;exitX=1;exitY=0.5;exitDx=0;exitDy=0;entryX=0.5;entryY=1;entryDx=0;entryDy=0;startArrow=classic;startFill=1;" parent="1" source="gqFaeBh5zX8QO3zzliL1-7" target="gqFaeBh5zX8QO3zzliL1-43" edge="1">
          <mxGeometry relative="1" as="geometry" />
        </mxCell>
        <mxCell id="8Vva1S4ErMBVoe8mqOkN-4" value="4" style="edgeLabel;html=1;align=center;verticalAlign=middle;resizable=0;points=[];" parent="8Vva1S4ErMBVoe8mqOkN-3" connectable="0" vertex="1">
          <mxGeometry x="-0.1492" y="-2" relative="1" as="geometry">
            <mxPoint x="-54" y="-2" as="offset" />
          </mxGeometry>
        </mxCell>
        <mxCell id="gqFaeBh5zX8QO3zzliL1-7" value="CPLD&lt;br&gt;EPM3128A" style="rounded=1;whiteSpace=wrap;html=1;fillColor=#dae8fc;strokeColor=#6c8ebf;" parent="1" vertex="1">
          <mxGeometry x="200" y="120" width="120" height="60" as="geometry" />
        </mxCell>
        <mxCell id="gqFaeBh5zX8QO3zzliL1-20" style="edgeStyle=orthogonalEdgeStyle;rounded=0;orthogonalLoop=1;jettySize=auto;html=1;exitX=0.75;exitY=1;exitDx=0;exitDy=0;startArrow=none;startFill=0;entryX=0.667;entryY=0;entryDx=0;entryDy=0;entryPerimeter=0;" parent="1" source="gqFaeBh5zX8QO3zzliL1-8" target="gqFaeBh5zX8QO3zzliL1-17" edge="1">
          <mxGeometry relative="1" as="geometry">
            <mxPoint x="280" y="460" as="targetPoint" />
            <Array as="points">
              <mxPoint x="280" y="310" />
            </Array>
          </mxGeometry>
        </mxCell>
        <mxCell id="gqFaeBh5zX8QO3zzliL1-21" value="2" style="edgeLabel;html=1;align=center;verticalAlign=middle;resizable=0;points=[];" parent="gqFaeBh5zX8QO3zzliL1-20" connectable="0" vertex="1">
          <mxGeometry x="0.3467" y="3" relative="1" as="geometry">
            <mxPoint x="-3" as="offset" />
          </mxGeometry>
        </mxCell>
        <mxCell id="gqFaeBh5zX8QO3zzliL1-23" style="edgeStyle=orthogonalEdgeStyle;rounded=0;orthogonalLoop=1;jettySize=auto;html=1;exitX=0.25;exitY=1;exitDx=0;exitDy=0;entryX=0.432;entryY=-0.01;entryDx=0;entryDy=0;entryPerimeter=0;startArrow=none;startFill=0;" parent="1" source="gqFaeBh5zX8QO3zzliL1-8" target="gqFaeBh5zX8QO3zzliL1-18" edge="1">
          <mxGeometry relative="1" as="geometry" />
        </mxCell>
        <mxCell id="gqFaeBh5zX8QO3zzliL1-24" value="16 (5/6/5)" style="edgeLabel;html=1;align=center;verticalAlign=middle;resizable=0;points=[];" parent="gqFaeBh5zX8QO3zzliL1-23" connectable="0" vertex="1">
          <mxGeometry x="0.3425" relative="1" as="geometry">
            <mxPoint y="-10" as="offset" />
          </mxGeometry>
        </mxCell>
        <mxCell id="gqFaeBh5zX8QO3zzliL1-25" value="55" style="edgeStyle=orthogonalEdgeStyle;rounded=0;orthogonalLoop=1;jettySize=auto;html=1;exitX=1;exitY=0.75;exitDx=0;exitDy=0;entryX=0.013;entryY=0.588;entryDx=0;entryDy=0;entryPerimeter=0;startArrow=classic;startFill=1;" parent="1" source="gqFaeBh5zX8QO3zzliL1-8" target="gqFaeBh5zX8QO3zzliL1-9" edge="1">
          <mxGeometry relative="1" as="geometry" />
        </mxCell>
        <mxCell id="gqFaeBh5zX8QO3zzliL1-27" style="edgeStyle=orthogonalEdgeStyle;rounded=0;orthogonalLoop=1;jettySize=auto;html=1;exitX=0;exitY=0.64;exitDx=0;exitDy=0;entryX=0.976;entryY=0.417;entryDx=0;entryDy=0;entryPerimeter=0;startArrow=none;startFill=0;exitPerimeter=0;" parent="1" source="gqFaeBh5zX8QO3zzliL1-8" target="gqFaeBh5zX8QO3zzliL1-26" edge="1">
          <mxGeometry relative="1" as="geometry" />
        </mxCell>
        <mxCell id="gqFaeBh5zX8QO3zzliL1-28" value="2" style="edgeLabel;html=1;align=center;verticalAlign=middle;resizable=0;points=[];" parent="gqFaeBh5zX8QO3zzliL1-27" connectable="0" vertex="1">
          <mxGeometry x="0.2305" y="3" relative="1" as="geometry">
            <mxPoint as="offset" />
          </mxGeometry>
        </mxCell>
        <mxCell id="gqFaeBh5zX8QO3zzliL1-30" style="edgeStyle=orthogonalEdgeStyle;rounded=0;orthogonalLoop=1;jettySize=auto;html=1;exitX=0;exitY=0.75;exitDx=0;exitDy=0;entryX=1.007;entryY=0.572;entryDx=0;entryDy=0;entryPerimeter=0;startArrow=none;startFill=0;" parent="1" source="gqFaeBh5zX8QO3zzliL1-8" target="gqFaeBh5zX8QO3zzliL1-29" edge="1">
          <mxGeometry relative="1" as="geometry">
            <Array as="points">
              <mxPoint x="190" y="285" />
              <mxPoint x="190" y="364" />
            </Array>
          </mxGeometry>
        </mxCell>
        <mxCell id="gqFaeBh5zX8QO3zzliL1-31" value="4" style="edgeLabel;html=1;align=center;verticalAlign=middle;resizable=0;points=[];" parent="gqFaeBh5zX8QO3zzliL1-30" connectable="0" vertex="1">
          <mxGeometry x="0.5331" y="-1" relative="1" as="geometry">
            <mxPoint as="offset" />
          </mxGeometry>
        </mxCell>
        <mxCell id="gqFaeBh5zX8QO3zzliL1-36" value="2" style="edgeStyle=orthogonalEdgeStyle;rounded=0;orthogonalLoop=1;jettySize=auto;html=1;exitX=0.75;exitY=1;exitDx=0;exitDy=0;entryX=0;entryY=0.5;entryDx=0;entryDy=0;startArrow=none;startFill=0;" parent="1" source="gqFaeBh5zX8QO3zzliL1-8" target="gqFaeBh5zX8QO3zzliL1-35" edge="1">
          <mxGeometry relative="1" as="geometry" />
        </mxCell>
        <mxCell id="gqFaeBh5zX8QO3zzliL1-38" style="edgeStyle=orthogonalEdgeStyle;rounded=0;orthogonalLoop=1;jettySize=auto;html=1;exitX=1;exitY=0.25;exitDx=0;exitDy=0;entryX=0.575;entryY=0.994;entryDx=0;entryDy=0;startArrow=classic;startFill=1;entryPerimeter=0;" parent="1" source="gqFaeBh5zX8QO3zzliL1-8" target="gqFaeBh5zX8QO3zzliL1-37" edge="1">
          <mxGeometry relative="1" as="geometry">
            <Array as="points">
              <mxPoint x="430" y="235" />
              <mxPoint x="430" y="220" />
            </Array>
          </mxGeometry>
        </mxCell>
        <mxCell id="gqFaeBh5zX8QO3zzliL1-39" value="19" style="edgeLabel;html=1;align=center;verticalAlign=middle;resizable=0;points=[];" parent="gqFaeBh5zX8QO3zzliL1-38" connectable="0" vertex="1">
          <mxGeometry x="0.0805" relative="1" as="geometry">
            <mxPoint as="offset" />
          </mxGeometry>
        </mxCell>
        <mxCell id="gqFaeBh5zX8QO3zzliL1-8" value="FPGA&lt;br&gt;EP1C6" style="rounded=1;whiteSpace=wrap;html=1;fillColor=#d5e8d4;strokeColor=#82b366;" parent="1" vertex="1">
          <mxGeometry x="200" y="210" width="120" height="100" as="geometry" />
        </mxCell>
        <mxCell id="gqFaeBh5zX8QO3zzliL1-9" value="SDRAM&lt;br&gt;4 M x 32" style="rounded=1;whiteSpace=wrap;html=1;fillColor=#f5f5f5;fontColor=#333333;strokeColor=#666666;" parent="1" vertex="1">
          <mxGeometry x="390" y="250" width="90" height="60" as="geometry" />
        </mxCell>
        <mxCell id="gqFaeBh5zX8QO3zzliL1-15" style="edgeStyle=orthogonalEdgeStyle;rounded=0;orthogonalLoop=1;jettySize=auto;html=1;exitX=1;exitY=0.5;exitDx=0;exitDy=0;entryX=0;entryY=0.5;entryDx=0;entryDy=0;startArrow=none;startFill=0;" parent="1" source="gqFaeBh5zX8QO3zzliL1-11" target="gqFaeBh5zX8QO3zzliL1-7" edge="1">
          <mxGeometry relative="1" as="geometry" />
        </mxCell>
        <mxCell id="gqFaeBh5zX8QO3zzliL1-16" style="edgeStyle=orthogonalEdgeStyle;rounded=0;orthogonalLoop=1;jettySize=auto;html=1;exitX=1;exitY=0.75;exitDx=0;exitDy=0;entryX=0;entryY=0.5;entryDx=0;entryDy=0;startArrow=none;startFill=0;" parent="1" source="gqFaeBh5zX8QO3zzliL1-11" target="gqFaeBh5zX8QO3zzliL1-8" edge="1">
          <mxGeometry relative="1" as="geometry" />
        </mxCell>
        <mxCell id="gqFaeBh5zX8QO3zzliL1-11" value="80 MHz&lt;br&gt;Clock" style="rounded=1;whiteSpace=wrap;html=1;fillColor=#fff2cc;strokeColor=#d6b656;" parent="1" vertex="1">
          <mxGeometry x="10" y="120" width="120" height="60" as="geometry" />
        </mxCell>
        <mxCell id="gqFaeBh5zX8QO3zzliL1-17" value="VGA" style="rounded=1;whiteSpace=wrap;html=1;fillColor=#fff2cc;strokeColor=#d6b656;" parent="1" vertex="1">
          <mxGeometry x="200" y="490" width="120" height="60" as="geometry" />
        </mxCell>
        <mxCell id="gqFaeBh5zX8QO3zzliL1-19" value="3" style="edgeStyle=orthogonalEdgeStyle;rounded=0;orthogonalLoop=1;jettySize=auto;html=1;exitX=0.5;exitY=1;exitDx=0;exitDy=0;entryX=0.289;entryY=-0.017;entryDx=0;entryDy=0;startArrow=none;startFill=0;entryPerimeter=0;" parent="1" source="gqFaeBh5zX8QO3zzliL1-18" target="gqFaeBh5zX8QO3zzliL1-17" edge="1">
          <mxGeometry relative="1" as="geometry" />
        </mxCell>
        <mxCell id="gqFaeBh5zX8QO3zzliL1-18" value="R2R DAC" style="rounded=1;whiteSpace=wrap;html=1;fillColor=#fff2cc;strokeColor=#d6b656;" parent="1" vertex="1">
          <mxGeometry x="200" y="370" width="70" height="60" as="geometry" />
        </mxCell>
        <mxCell id="gqFaeBh5zX8QO3zzliL1-26" value="2 LEDs" style="rounded=1;whiteSpace=wrap;html=1;fillColor=#fff2cc;strokeColor=#d6b656;" parent="1" vertex="1">
          <mxGeometry x="20" y="250" width="90" height="60" as="geometry" />
        </mxCell>
        <mxCell id="gqFaeBh5zX8QO3zzliL1-29" value="2 PS2" style="rounded=1;whiteSpace=wrap;html=1;fillColor=#fff2cc;strokeColor=#d6b656;" parent="1" vertex="1">
          <mxGeometry x="20" y="330" width="90" height="60" as="geometry" />
        </mxCell>
        <mxCell id="gqFaeBh5zX8QO3zzliL1-35" value="Audio jack&lt;br&gt;stereo" style="rounded=1;whiteSpace=wrap;html=1;fillColor=#fff2cc;strokeColor=#d6b656;" parent="1" vertex="1">
          <mxGeometry x="345" y="370" width="90" height="60" as="geometry" />
        </mxCell>
        <mxCell id="gqFaeBh5zX8QO3zzliL1-37" value="ETH PHY&lt;br&gt;RTL8201CL" style="rounded=1;whiteSpace=wrap;html=1;fillColor=#fff2cc;strokeColor=#d6b656;" parent="1" vertex="1">
          <mxGeometry x="390" y="160" width="70" height="60" as="geometry" />
        </mxCell>
        <mxCell id="gqFaeBh5zX8QO3zzliL1-40" value="JTAG PINS&lt;br&gt;(1)" style="rounded=1;whiteSpace=wrap;html=1;fillColor=#fff2cc;strokeColor=#d6b656;" parent="1" vertex="1">
          <mxGeometry x="355" y="70" width="80" height="40" as="geometry" />
        </mxCell>
        <mxCell id="gqFaeBh5zX8QO3zzliL1-43" value="JTAG PINS (2)" style="rounded=1;whiteSpace=wrap;html=1;fillColor=#fff2cc;strokeColor=#d6b656;" parent="1" vertex="1">
          <mxGeometry x="450" y="70" width="80" height="40" as="geometry" />
        </mxCell>
      </root>
    </mxGraphModel>
  </diagram>
</mxfile>
